# xmcd
#
# Track frame offsets:
#	150
#	30477
#	50362
#	132545
#	181272
#	214540
#	252047
#	297662
#
# Disc length: 4605 seconds
#
# Revision: 1
# Processed by: cddbd v1.5.2PL0 Copyright (c) Steve Scherf et al.
# Submitted via: audiograbber 1.83.01
#
DISCID=7211fb08
DTITLE=Grateful Dead - 77-11-02 Field House, Seneca College, Toronto, Canada
DYEAR=1900
DGENRE=
TTITLE0=Good Lovin
TTITLE1=Sunrise
TTITLE2=Scarlet Begonias > Fire On The Mountain
TTITLE3=Estimated Prophet
TTITLE4=St Stephen
TTITLE5=Truckin
TTITLE6=Around and Around
TTITLE7=Terrapin Station
EXTD=
EXTT0=
EXTT1=
EXTT2=
EXTT3=
EXTT4=
EXTT5=
EXTT6=
EXTT7=
PLAYORDER=
